<mxfile host="app.diagrams.net" modified="2024-01-17T15:22:38.302Z" agent="Mozilla/5.0 (Windows NT 10.0; Win64; x64) AppleWebKit/537.36 (KHTML, like Gecko) Chrome/119.0.0.0 Safari/537.36 OPR/105.0.0.0" version="22.1.17" etag="uFRhYWixOUMIseHqbdXk" type="github">
  <diagram name="Page-1" id="rn1M3n6UMDfYzyjP6mjY">
    <mxGraphModel>
      <root>
        <mxCell id="0" />
        <mxCell id="1" parent="0" />
      </root>
    </mxGraphModel>
  </diagram>
</mxfile>
